<svg width="181" height="180" viewBox="0 0 181 180" fill="none" xmlns="http://www.w3.org/2000/svg">
<path d="M22.3219 115.779C23.9633 112.254 27.499 110 31.3873 110H159.887C167.138 110 171.979 117.477 169.011 124.093L154.206 157.093C152.594 160.687 149.021 163 145.082 163H16.0208C8.70827 163 3.86862 155.408 6.95547 148.779L22.3219 115.779Z" fill="url(#paint0_linear_459_3308)"/>
<path d="M46.5003 50C46.5003 49.0386 46.8822 48.1166 47.562 47.4367C48.2419 46.7569 49.1639 46.375 50.1253 46.375H129.875C130.837 46.375 131.759 46.7569 132.439 47.4367C133.118 48.1166 133.5 49.0386 133.5 50C133.5 50.9614 133.118 51.8834 132.439 52.5633C131.759 53.2431 130.837 53.625 129.875 53.625H50.1253C49.1639 53.625 48.2419 53.2431 47.562 52.5633C46.8822 51.8834 46.5003 50.9614 46.5003 50ZM50.1253 82.625H79.1253C80.0867 82.625 81.0087 82.2431 81.6886 81.5633C82.3684 80.8834 82.7503 79.9614 82.7503 79C82.7503 78.0386 82.3684 77.1166 81.6886 76.4367C81.0087 75.7569 80.0867 75.375 79.1253 75.375H50.1253C49.1639 75.375 48.2419 75.7569 47.562 76.4367C46.8822 77.1166 46.5003 78.0386 46.5003 79C46.5003 79.9614 46.8822 80.8834 47.562 81.5633C48.2419 82.2431 49.1639 82.625 50.1253 82.625ZM86.3753 104.375H50.1253C49.1639 104.375 48.2419 104.757 47.562 105.437C46.8822 106.117 46.5003 107.039 46.5003 108C46.5003 108.961 46.8822 109.883 47.562 110.563C48.2419 111.243 49.1639 111.625 50.1253 111.625H86.3753C87.3367 111.625 88.2587 111.243 88.9386 110.563C89.6184 109.883 90.0003 108.961 90.0003 108C90.0003 107.039 89.6184 106.117 88.9386 105.437C88.2587 104.757 87.3367 104.375 86.3753 104.375ZM144.375 86.25C144.375 102.798 121.592 114.38 120.622 114.869C120.119 115.121 119.563 115.253 119 115.253C118.437 115.253 117.882 115.121 117.378 114.869C116.408 114.38 93.6253 102.798 93.6253 86.25C93.6277 83.3057 94.5263 80.432 96.2017 78.0109C97.8771 75.5898 100.25 73.736 103.004 72.6962C105.759 71.6564 108.765 71.4797 111.622 72.1897C114.479 72.8997 117.053 74.4627 119 76.6709C120.948 74.4627 123.521 72.8997 126.379 72.1897C129.236 71.4797 132.242 71.6564 134.996 72.6962C137.751 73.736 140.124 75.5898 141.799 78.0109C143.474 80.432 144.373 83.3057 144.375 86.25ZM137.125 86.25C137.125 84.3272 136.361 82.4831 135.002 81.1235C133.642 79.7638 131.798 79 129.875 79C127.952 79 126.108 79.7638 124.749 81.1235C123.389 82.4831 122.625 86.25 122.625 86.25C122.625 86.25 122.243 88.1334 121.564 88.8133C120.884 89.4931 119.962 89.875 119 89.875C118.039 89.875 117.117 89.4931 116.437 88.8133C115.757 88.1334 115.79 87.251 115.375 86.25C114.546 84.248 114.611 82.4831 113.252 81.1235C111.892 79.7638 110.048 79 108.125 79C106.202 79 104.358 79.7638 102.999 81.1235C101.639 82.4831 100.875 84.3272 100.875 86.25C100.875 95.3941 112.752 103.985 119 107.515C125.249 103.99 137.125 95.3986 137.125 86.25Z" fill="#4C83FF"/>
<path d="M137.125 86.25C137.125 84.3272 136.361 82.4831 135.002 81.1235C133.642 79.7638 131.798 79 129.875 79C127.952 79 126.108 79.7638 124.749 81.1235C123.389 82.4831 122.625 86.25 122.625 86.25C122.625 86.25 122.243 88.1334 121.564 88.8133C120.884 89.4931 119.962 89.875 119 89.875C118.039 89.875 117.117 89.4931 116.437 88.8133C115.757 88.1334 115.79 87.251 115.375 86.25C114.546 84.248 114.611 82.4831 113.252 81.1235C111.892 79.7638 110.048 79 108.125 79C106.202 79 104.358 79.7638 102.999 81.1235C101.639 82.4831 100.875 84.3272 100.875 86.25C100.875 95.3941 112.752 103.985 119 107.515C125.249 103.99 137.125 95.3986 137.125 86.25Z" fill="#2AFADF"/>
<defs>
<linearGradient id="paint0_linear_459_3308" x1="67.8069" y1="110" x2="67.8069" y2="163" gradientUnits="userSpaceOnUse">
<stop stop-color="#C8E3FE"/>
<stop offset="0.965" stop-color="#93F6E6"/>
</linearGradient>
</defs>
</svg>
