<svg width="24" height="24" viewBox="0 0 24 24" fill="none" xmlns="http://www.w3.org/2000/svg">
<g clip-path="url(#clip0_459_3355)">
<path d="M11.9901 2.163C15.1941 2.163 15.5741 2.175 16.8401 2.233C20.0921 2.381 21.611 3.924 21.7591 7.152C21.8171 8.417 21.8281 8.797 21.8281 12.001C21.8281 15.206 21.816 15.585 21.7591 16.85C21.6101 20.075 20.0951 21.621 16.8401 21.769C15.5741 21.827 15.1961 21.839 11.9901 21.839C8.78605 21.839 8.40605 21.827 7.14105 21.769C3.88105 21.62 2.37005 20.07 2.22205 16.849C2.16405 15.584 2.15205 15.205 2.15205 12C2.15205 8.796 2.16505 8.417 2.22205 7.151C2.37105 3.924 3.88605 2.38 7.14105 2.232C8.40705 2.175 8.78605 2.163 11.9901 2.163ZM11.9901 0C8.73105 0 8.32305 0.014 7.04305 0.072C2.68505 0.272 0.263051 2.69 0.0630513 7.052C0.00405127 8.333 -0.00994873 8.741 -0.00994873 12C-0.00994873 15.259 0.00405127 15.668 0.0620513 16.948C0.262051 21.306 2.68005 23.728 7.04205 23.928C8.32305 23.986 8.73105 24 11.9901 24C15.2491 24 15.6581 23.986 16.9381 23.928C21.2921 23.728 23.7201 21.31 23.9171 16.948C23.9761 15.668 23.9901 15.259 23.9901 12C23.9901 8.741 23.9761 8.333 23.9181 7.053C23.7221 2.699 21.3011 0.273 16.9391 0.073C15.6581 0.014 15.2491 0 11.9901 0ZM11.9901 5.838C8.58705 5.838 5.82805 8.597 5.82805 12C5.82805 15.403 8.58705 18.163 11.9901 18.163C15.3931 18.163 18.1521 15.404 18.1521 12C18.1521 8.597 15.3931 5.838 11.9901 5.838ZM11.9901 16C9.78105 16 7.99005 14.21 7.99005 12C7.99005 9.791 9.78105 8 11.9901 8C14.1991 8 15.9901 9.791 15.9901 12C15.9901 14.21 14.1991 16 11.9901 16ZM18.3961 4.155C17.6001 4.155 16.9551 4.8 16.9551 5.595C16.9551 6.39 17.6001 7.035 18.3961 7.035C19.1911 7.035 19.8351 6.39 19.8351 5.595C19.8351 4.8 19.1911 4.155 18.3961 4.155Z" fill="#303030"/>
</g>
<defs>
<clipPath id="clip0_459_3355">
<rect width="24" height="24" fill="white" transform="translate(-0.00994873)"/>
</clipPath>
</defs>
</svg>
