<svg width="24" height="24" viewBox="0 0 24 24" fill="none" xmlns="http://www.w3.org/2000/svg">
<path d="M18.9901 0H4.99005C2.22905 0 -0.00994873 2.239 -0.00994873 5V19C-0.00994873 21.761 2.22905 24 4.99005 24H18.9901C21.7521 24 23.9901 21.761 23.9901 19V5C23.9901 2.239 21.7521 0 18.9901 0ZM7.99005 19H4.99005V8H7.99005V19ZM6.49005 6.732C5.52405 6.732 4.74005 5.942 4.74005 4.968C4.74005 3.994 5.52405 3.204 6.49005 3.204C7.45605 3.204 8.24005 3.994 8.24005 4.968C8.24005 5.942 7.45705 6.732 6.49005 6.732ZM19.9901 19H16.9901V13.396C16.9901 10.028 12.9901 10.283 12.9901 13.396V19H9.99005V8H12.9901V9.765C14.3861 7.179 19.9901 6.988 19.9901 12.241V19Z" fill="#303030"/>
</svg>
