<svg width="181" height="180" viewBox="0 0 181 180" fill="none" xmlns="http://www.w3.org/2000/svg">
<path d="M22.6553 115.779C24.2966 112.254 27.8323 110 31.7206 110H160.22C167.472 110 172.312 117.477 169.344 124.093L154.539 157.093C152.927 160.687 149.355 163 145.415 163H16.3542C9.04159 163 4.20193 155.408 7.28878 148.779L22.6553 115.779Z" fill="url(#paint0_linear_459_3287)"/>
<path d="M111.744 41.6282C111.744 40.5257 112.182 39.4683 112.961 38.6887C113.741 37.9092 114.798 37.4712 115.901 37.4712H124.215V29.1571C124.215 28.0546 124.653 26.9972 125.432 26.2176C126.212 25.438 127.269 25.0001 128.372 25.0001C129.474 25.0001 130.532 25.438 131.311 26.2176C132.091 26.9972 132.529 28.0546 132.529 29.1571V37.4712H140.843C141.946 37.4712 143.003 37.9092 143.782 38.6887C144.562 39.4683 145 40.5257 145 41.6282C145 42.7307 144.562 43.7881 143.782 44.5677C143.003 45.3473 141.946 45.7853 140.843 45.7853H132.529V54.0993C132.529 55.2019 132.091 56.2592 131.311 57.0388C130.532 57.8184 129.474 58.2564 128.372 58.2564C127.269 58.2564 126.212 57.8184 125.432 57.0388C124.653 56.2592 124.215 55.2019 124.215 54.0993V45.7853H115.901C114.798 45.7853 113.741 45.3473 112.961 44.5677C112.182 43.7881 111.744 42.7307 111.744 41.6282ZM144.252 70.0416C146.151 81.3308 144.413 92.9316 139.289 103.169C134.166 113.406 125.921 121.75 115.746 126.996C105.571 132.242 93.9918 134.119 82.6805 132.355C71.3693 130.591 60.9113 125.279 52.8164 117.184C44.7215 109.089 39.4087 98.6308 37.6449 87.3196C35.8812 76.0084 37.7578 64.4293 43.0039 54.2542C48.25 44.079 56.594 35.8344 66.8313 30.7107C77.0685 25.5869 88.6693 23.8492 99.9585 25.7483C101.038 25.9392 101.998 26.5484 102.63 27.4434C103.262 28.3385 103.516 29.447 103.335 30.5278C103.154 31.6086 102.554 32.5743 101.664 33.2148C100.775 33.8554 99.6692 34.1189 98.5867 33.9481C92.0297 32.845 85.311 33.1841 78.8983 34.9417C72.4857 36.6992 66.533 39.833 61.4546 44.125C56.3762 48.417 52.2941 53.7641 49.4923 59.7942C46.6905 65.8242 45.2364 72.3924 45.2311 79.0416C45.2213 90.2354 49.3354 101.041 56.7877 109.393C61.424 102.675 67.9432 97.4771 75.5255 94.4538C71.4526 91.2458 68.4805 86.8484 67.0227 81.873C65.5648 76.8976 65.6936 71.5916 67.3912 66.6928C69.0887 61.794 72.2707 57.546 76.4945 54.5394C80.7183 51.5329 85.774 49.9172 90.9585 49.9172C96.1431 49.9172 101.199 51.5329 105.423 54.5394C109.646 57.546 112.828 61.794 114.526 66.6928C116.223 71.5916 116.352 76.8976 114.894 81.873C113.437 86.8484 110.465 91.2458 106.392 94.4538C113.974 97.4771 120.493 102.675 125.129 109.393C132.582 101.041 136.696 90.2354 136.686 79.0416C136.686 76.4857 136.474 73.9342 136.052 71.4134C135.956 70.8726 135.969 70.3183 136.089 69.7824C136.209 69.2465 136.433 68.7396 136.75 68.2911C137.067 67.8425 137.47 67.4612 137.935 67.1691C138.4 66.8771 138.918 66.68 139.46 66.5894C140.001 66.4988 140.555 66.5164 141.09 66.6412C141.625 66.766 142.13 66.9955 142.575 67.3165C143.021 67.6375 143.399 68.0436 143.686 68.5113C143.974 68.979 144.166 69.4991 144.252 70.0416ZM90.9585 91.5127C94.2473 91.5127 97.4622 90.5375 100.197 88.7103C102.931 86.8832 105.062 84.2862 106.321 81.2478C107.58 78.2094 107.909 74.8661 107.267 71.6405C106.626 68.415 105.042 65.4521 102.716 63.1266C100.391 60.8012 97.4281 59.2175 94.2025 58.5759C90.977 57.9343 87.6336 58.2636 84.5952 59.5221C81.5568 60.7807 78.9599 62.9119 77.1327 65.6464C75.3056 68.3809 74.3304 71.5958 74.3304 74.8845C74.3304 79.2946 76.0823 83.524 79.2007 86.6424C82.3191 89.7608 86.5485 91.5127 90.9585 91.5127ZM90.9585 124.769C101.109 124.779 110.971 121.395 118.977 115.156C115.97 110.453 111.827 106.582 106.93 103.901C102.034 101.22 96.5411 99.8146 90.9585 99.8146C85.376 99.8146 79.8834 101.22 74.9868 103.901C70.0902 106.582 65.9474 110.453 62.9401 115.156C70.946 121.395 80.8083 124.779 90.9585 124.769Z" fill="#6188FF"/>
<defs>
<linearGradient id="paint0_linear_459_3287" x1="68.1402" y1="110" x2="68.1402" y2="163" gradientUnits="userSpaceOnUse">
<stop stop-color="#C8E3FE"/>
<stop offset="0.965" stop-color="#93F6E6"/>
</linearGradient>
</defs>
</svg>
