<svg width="40" height="40" viewBox="0 0 40 40" fill="none" xmlns="http://www.w3.org/2000/svg">
<path d="M0 8C0 3.58172 3.58172 0 8 0H32C36.4183 0 40 3.58172 40 8V32C40 36.4183 36.4183 40 32 40H8C3.58172 40 0 36.4183 0 32V8Z" fill="#009FB9"/>
<path d="M26 26L23.1 23.1M24.6667 19.3333C24.6667 22.2789 22.2789 24.6667 19.3333 24.6667C16.3878 24.6667 14 22.2789 14 19.3333C14 16.3878 16.3878 14 19.3333 14C22.2789 14 24.6667 16.3878 24.6667 19.3333Z" stroke="#F5F5F5" stroke-width="1.6" stroke-linecap="round" stroke-linejoin="round"/>
</svg>
