<svg width="102" height="28" viewBox="0 0 102 28" fill="none" xmlns="http://www.w3.org/2000/svg">
<path d="M0.26 9.28V7.3H10.26V9.28H6.4V21H4.16V9.28H0.26ZM17.3853 19.2L17.9453 19.14L17.9853 20.76C16.4653 21.0667 15.1186 21.22 13.9453 21.22C12.4653 21.22 11.3986 20.8133 10.7453 20C10.1053 19.1867 9.78531 17.8867 9.78531 16.1C9.78531 12.5533 11.232 10.78 14.1253 10.78C16.9253 10.78 18.3253 12.3067 18.3253 15.36L18.1853 16.92H11.9853C11.9986 17.7467 12.1786 18.3533 12.5253 18.74C12.872 19.1267 13.5186 19.32 14.4653 19.32C15.412 19.32 16.3853 19.28 17.3853 19.2ZM16.1853 15.24C16.1853 14.2533 16.0253 13.5667 15.7053 13.18C15.3986 12.78 14.872 12.58 14.1253 12.58C13.3786 12.58 12.832 12.7867 12.4853 13.2C12.152 13.6133 11.9786 14.2933 11.9653 15.24H16.1853ZM24.1616 10.78C24.8682 10.78 25.7016 10.8733 26.6616 11.06L27.1616 11.16L27.0816 12.88C26.0282 12.7733 25.2482 12.72 24.7416 12.72C23.7282 12.72 23.0482 12.9467 22.7016 13.4C22.3549 13.8533 22.1816 14.7067 22.1816 15.96C22.1816 17.2133 22.3482 18.08 22.6816 18.56C23.0149 19.04 23.7082 19.28 24.7616 19.28L27.1016 19.12L27.1616 20.86C25.8149 21.1 24.8016 21.22 24.1216 21.22C22.6016 21.22 21.5282 20.8133 20.9016 20C20.2882 19.1733 19.9816 17.8267 19.9816 15.96C19.9816 14.0933 20.3082 12.7667 20.9616 11.98C21.6149 11.18 22.6816 10.78 24.1616 10.78ZM31.4492 21H29.2692V6.84H31.4492V11.52C32.4359 11.0267 33.3492 10.78 34.1892 10.78C35.5226 10.78 36.4292 11.16 36.9092 11.92C37.4026 12.6667 37.6492 13.9067 37.6492 15.64V21H35.4692V15.7C35.4692 14.62 35.3559 13.8533 35.1292 13.4C34.9026 12.9467 34.4226 12.72 33.6892 12.72C33.0492 12.72 32.4092 12.8267 31.7692 13.04L31.4492 13.16V21Z" fill="#25898E"/>
<path d="M42.0832 9.88V19.576C42.0832 20.1733 42.0299 20.648 41.9232 21C41.8272 21.3413 41.6405 21.5973 41.3632 21.768C41.0965 21.9387 40.8085 22.0453 40.4992 22.088C40.1899 22.1307 39.7419 22.152 39.1552 22.152V21.272C39.6139 21.272 39.9445 21.256 40.1472 21.224C40.3499 21.2027 40.5365 21.128 40.7072 21C40.8885 20.872 41.0005 20.6853 41.0432 20.44C41.0859 20.1947 41.1072 19.8373 41.1072 19.368V9.88H42.0832ZM44.2156 16.984C44.2156 15.48 44.4662 14.4133 44.9676 13.784C45.4796 13.1547 46.3436 12.84 47.5596 12.84C48.7862 12.84 49.6502 13.1547 50.1516 13.784C50.6636 14.4133 50.9196 15.48 50.9196 16.984C50.9196 18.488 50.6849 19.56 50.2156 20.2C49.7569 20.84 48.8769 21.16 47.5756 21.16C46.2742 21.16 45.3889 20.84 44.9196 20.2C44.4502 19.56 44.2156 18.488 44.2156 16.984ZM45.2076 16.968C45.2076 18.2267 45.3516 19.1013 45.6396 19.592C45.9382 20.072 46.5782 20.312 47.5596 20.312C48.5516 20.312 49.1969 20.0667 49.4956 19.576C49.7942 19.0853 49.9436 18.216 49.9436 16.968C49.9436 15.7093 49.7729 14.8507 49.4316 14.392C49.1009 13.9227 48.4822 13.688 47.5756 13.688C46.6689 13.688 46.0449 13.9173 45.7036 14.376C45.3729 14.8347 45.2076 15.6987 45.2076 16.968ZM56.4291 12.84C57.4957 12.84 58.2371 13.1493 58.6531 13.768C59.0691 14.3867 59.2771 15.4587 59.2771 16.984C59.2771 18.4987 59.0104 19.576 58.4771 20.216C57.9544 20.8453 56.9731 21.16 55.5331 21.16C54.9357 21.16 54.2211 21.1173 53.3891 21.032L52.9731 21V9.448H53.9331V13.432C54.7651 13.0373 55.5971 12.84 56.4291 12.84ZM53.9331 20.2C54.6797 20.264 55.2771 20.296 55.7251 20.296C56.1837 20.296 56.5944 20.232 56.9571 20.104C57.3197 19.976 57.5971 19.7627 57.7891 19.464C57.9917 19.1547 58.1251 18.808 58.1891 18.424C58.2531 18.0293 58.2851 17.512 58.2851 16.872C58.2851 15.7413 58.1464 14.9307 57.8691 14.44C57.6024 13.9493 57.0957 13.704 56.3491 13.704C55.9864 13.704 55.6024 13.752 55.1971 13.848C54.7917 13.9333 54.4771 14.024 54.2531 14.12L53.9331 14.248V20.2ZM66.8644 9.88V19.576C66.8644 20.1733 66.8111 20.648 66.7044 21C66.6084 21.3413 66.4218 21.5973 66.1444 21.768C65.8778 21.9387 65.5898 22.0453 65.2804 22.088C64.9711 22.1307 64.5231 22.152 63.9364 22.152V21.272C64.3951 21.272 64.7258 21.256 64.9284 21.224C65.1311 21.2027 65.3178 21.128 65.4884 21C65.6698 20.872 65.7818 20.6853 65.8244 20.44C65.8671 20.1947 65.8884 19.8373 65.8884 19.368V9.88H66.8644ZM74.9149 15.384V19.672C74.9576 20.0667 75.3043 20.3013 75.9549 20.376L75.9069 21.144C75.0856 21.144 74.4829 20.9307 74.0989 20.504C73.0963 20.9413 72.0936 21.16 71.0909 21.16C70.3763 21.16 69.8323 20.9573 69.4589 20.552C69.0856 20.136 68.8989 19.5493 68.8989 18.792C68.8989 18.024 69.0856 17.4587 69.4589 17.096C69.8429 16.7227 70.4403 16.4933 71.2509 16.408L73.9709 16.136V15.384C73.9709 14.7867 73.8376 14.36 73.5709 14.104C73.3149 13.8373 72.9683 13.704 72.5309 13.704C71.8483 13.704 70.9629 13.768 69.8749 13.896L69.3789 13.944L69.3309 13.176C70.5043 12.952 71.5283 12.84 72.4029 12.84C73.2883 12.84 73.9283 13.048 74.3229 13.464C74.7176 13.88 74.9149 14.52 74.9149 15.384ZM69.8909 18.728C69.8909 19.8053 70.3336 20.344 71.2189 20.344C71.6029 20.344 72.0243 20.3013 72.4829 20.216C72.9416 20.12 73.3043 20.024 73.5709 19.928L73.9709 19.784V16.888L71.3629 17.16C70.8403 17.2027 70.4616 17.352 70.2269 17.608C70.0029 17.864 69.8909 18.2373 69.8909 18.728ZM77.3953 24.6V13H78.3393V13.608C79.1713 13.096 80.046 12.84 80.9633 12.84C81.8913 12.84 82.5793 13.1653 83.0273 13.816C83.486 14.4667 83.7153 15.528 83.7153 17C83.7153 18.4613 83.4486 19.5227 82.9153 20.184C82.382 20.8347 81.4966 21.16 80.2593 21.16C79.598 21.16 78.958 21.0907 78.3393 20.952V24.6H77.3953ZM80.7713 13.704C80.4193 13.704 80.0406 13.7627 79.6353 13.88C79.23 13.9973 78.9153 14.12 78.6913 14.248L78.3393 14.424V20.12C79.0646 20.248 79.694 20.312 80.2273 20.312C81.1446 20.312 81.79 20.056 82.1633 19.544C82.5366 19.0213 82.7233 18.168 82.7233 16.984C82.7233 15.7893 82.558 14.9467 82.2273 14.456C81.9073 13.9547 81.422 13.704 80.7713 13.704ZM91.2743 15.384V19.672C91.317 20.0667 91.6636 20.3013 92.3143 20.376L92.2663 21.144C91.445 21.144 90.8423 20.9307 90.4583 20.504C89.4556 20.9413 88.453 21.16 87.4503 21.16C86.7356 21.16 86.1916 20.9573 85.8183 20.552C85.445 20.136 85.2583 19.5493 85.2583 18.792C85.2583 18.024 85.445 17.4587 85.8183 17.096C86.2023 16.7227 86.7996 16.4933 87.6103 16.408L90.3303 16.136V15.384C90.3303 14.7867 90.197 14.36 89.9303 14.104C89.6743 13.8373 89.3276 13.704 88.8903 13.704C88.2076 13.704 87.3223 13.768 86.2343 13.896L85.7383 13.944L85.6903 13.176C86.8636 12.952 87.8876 12.84 88.7623 12.84C89.6476 12.84 90.2876 13.048 90.6823 13.464C91.077 13.88 91.2743 14.52 91.2743 15.384ZM86.2503 18.728C86.2503 19.8053 86.693 20.344 87.5783 20.344C87.9623 20.344 88.3836 20.3013 88.8423 20.216C89.301 20.12 89.6636 20.024 89.9303 19.928L90.3303 19.784V16.888L87.7223 17.16C87.1996 17.2027 86.821 17.352 86.5863 17.608C86.3623 17.864 86.2503 18.2373 86.2503 18.728ZM94.6987 21H93.7547V13H94.6987V13.592C95.5947 13.0907 96.464 12.84 97.3067 12.84C98.3734 12.84 99.0827 13.1227 99.4347 13.688C99.7974 14.2533 99.9787 15.288 99.9787 16.792V21H99.0187V16.84C99.0187 15.6133 98.9014 14.7867 98.6667 14.36C98.432 13.9227 97.9307 13.704 97.1627 13.704C96.7894 13.704 96.3947 13.7627 95.9787 13.88C95.5734 13.9867 95.2587 14.0987 95.0347 14.216L94.6987 14.376V21Z" fill="black"/>
</svg>
