<svg width="180" height="180" viewBox="0 0 180 180" fill="none" xmlns="http://www.w3.org/2000/svg">
<path d="M21.9885 115.779C23.6299 112.254 27.1656 110 31.0539 110H159.553C166.805 110 171.646 117.477 168.677 124.093L153.873 157.093C152.26 160.687 148.688 163 144.749 163H15.6874C8.37484 163 3.53518 155.408 6.62203 148.779L21.9885 115.779Z" fill="url(#paint0_linear_459_3297)"/>
<path d="M129.875 79V115.25C129.875 117.173 129.111 119.017 127.751 120.377C126.392 121.736 124.548 122.5 122.625 122.5H53.7499C51.8271 122.5 49.983 121.736 48.6234 120.377C47.2637 119.017 46.4999 117.173 46.4999 115.25V46.375C46.4999 44.4522 47.2637 42.6081 48.6234 41.2485C49.983 39.8888 51.8271 39.125 53.7499 39.125H89.9999C90.9613 39.125 91.8833 39.5069 92.5631 40.1867C93.243 40.8666 93.6249 41.7886 93.6249 42.75C93.6249 43.7114 93.243 44.6334 92.5631 45.3133C91.8833 45.9931 90.9613 46.375 89.9999 46.375H53.7499V115.25H122.625V79C122.625 78.0386 123.007 77.1166 123.687 76.4367C124.366 75.7569 125.288 75.375 126.25 75.375C127.211 75.375 128.133 75.7569 128.813 76.4367C129.493 77.1166 129.875 78.0386 129.875 79ZM137.125 48.1875C137.125 51.4138 136.168 54.5677 134.376 57.2502C132.583 59.9328 130.036 62.0236 127.055 63.2583C124.074 64.4929 120.794 64.816 117.63 64.1866C114.466 63.5571 111.559 62.0035 109.278 59.7222C106.996 57.4408 105.443 54.5342 104.813 51.3699C104.184 48.2056 104.507 44.9257 105.742 41.945C106.976 38.9643 109.067 36.4166 111.75 34.6242C114.432 32.8317 117.586 31.875 120.812 31.875C125.139 31.875 129.288 33.5936 132.347 36.6528C135.406 39.712 137.125 43.8612 137.125 48.1875ZM129.875 48.1875C129.875 46.3951 129.343 44.643 128.348 43.1526C127.352 41.6623 125.936 40.5008 124.28 39.8148C122.624 39.1289 120.802 38.9495 119.044 39.2991C117.286 39.6488 115.672 40.5119 114.404 41.7793C113.137 43.0468 112.274 44.6615 111.924 46.4195C111.574 48.1774 111.754 49.9996 112.44 51.6556C113.126 53.3115 114.287 54.7269 115.778 55.7227C117.268 56.7185 119.02 57.25 120.812 57.25C123.216 57.25 125.521 56.2952 127.221 54.5957C128.92 52.8961 129.875 50.591 129.875 48.1875Z" fill="#6188FF"/>
<path d="M129.875 48.1875C129.875 46.3951 129.343 44.643 128.348 43.1526C127.352 41.6623 125.936 40.5008 124.28 39.8148C122.624 39.1289 120.802 38.9495 119.044 39.2991C117.286 39.6488 115.672 40.5119 114.404 41.7793C113.137 43.0468 112.274 44.6615 111.924 46.4195C111.574 48.1774 111.754 49.9996 112.44 51.6556C113.126 53.3115 114.287 54.7269 115.778 55.7227C117.268 56.7185 119.02 57.25 120.812 57.25C123.216 57.25 125.521 56.2952 127.221 54.5957C128.92 52.8961 129.875 50.591 129.875 48.1875Z" fill="#2AFADF"/>
<defs>
<linearGradient id="paint0_linear_459_3297" x1="67.4735" y1="110" x2="67.4735" y2="163" gradientUnits="userSpaceOnUse">
<stop stop-color="#C8E3FE"/>
<stop offset="0.965" stop-color="#93F6E6"/>
</linearGradient>
</defs>
</svg>
